# xmcd
#
# Track frame offsets: 
#        150
#        20414
#        33957
#        49802
#        61973
#        79538
#        89897
#        106662
#        119883
#        134903
#        150200
#        165521
#        180883
#        196030
#        216992
#        234797
#        246660
#        263025
#        274420
#        291592
#        308523
#        325640
#        341517
#
# Disc length: 4732 seconds
#
# Revision: 0
# Processed by: cddbd v1.5.2PL0 Copyright (c) Steve Scherf et al.
# Submitted via: ExactAudioCopy v0.99pb4
#
DISCID=45127a17
DTITLE=Various Artist - MNM Big Hits 2015 Best Of - CD 1
DYEAR=2015
DGENRE=Top 40
TTITLE0=Mark Ronson Feat. Bruno Mars - Uptown Funk!
TTITLE1=Omi - Cheerleader (Felix Jaehn Remix)
TTITLE2=Dimitri Vegas and Like Mike Vs. Ummet Ozcan - The Hum
TTITLE3=Pharrell Williams - Freedom
TTITLE4=Christine And The Queens - Christine
TTITLE5=Lost Frequencies - Are You With Me
TTITLE6=Stan Van Samang - Goeiemorgend, Goeiendag (Live)
TTITLE7=Major Lazer and DJ Snake Feat. Mø - Lean On
TTITLE8=Zara Larsson - Lush Life
TTITLE9=Kygo Feat. Conrad - Firestone
TTITLE10=Lea Rue - I Can't Say No! (Broiler Remix)
TTITLE11=Justin Bieber - What Do You Mean?
TTITLE12=Feder Feat. Lyse - Goodbye
TTITLE13=Ed Sheeran - Thinking Out Loud
TTITLE14=Låpsley - Hurt Me
TTITLE15=Sigala - Easy Love
TTITLE16=James Bay - Hold Back The River
TTITLE17=Gregory Porter - Liquid Spirit (Claptone Remix)
TTITLE18=Jebroer Feat. Stepherd, Skinto and Jayh - Banaan (Bigger Better
TTITLE18=Anthem)
TTITLE19=R. City Feat. Adam Levine - Locked Away
TTITLE20=Netsky Feat. Digital Farm Animals - Rio
TTITLE21=Deorro X Chris Brown - Five More Hours
TTITLE22=Regi and Sem Thomasson Feat. LX - The Party Is Over
EXTD=
EXTT0=
EXTT1=
EXTT2=
EXTT3=
EXTT4=
EXTT5=
EXTT6=
EXTT7=
EXTT8=
EXTT9=
EXTT10=
EXTT11=
EXTT12=
EXTT13=
EXTT14=
EXTT15=
EXTT16=
EXTT17=
EXTT18=
EXTT19=
EXTT20=
EXTT21=
EXTT22=
PLAYORDER=
